<svg xmlns="http://www.w3.org/2000/svg" width="558.344" height="119.406" viewBox="0 0 558.344 119.406">
  <g id="Grupo_390" data-name="Grupo 390" transform="translate(-681.089 -305.588)">
    <text id="CONTROLE_IMOBILIÁRIO" data-name="CONTROLE IMOBILIÁRIO" transform="translate(909 420.994)" fill="#fff" font-size="27" font-family="Gotham-Light, Gotham" font-weight="300" letter-spacing="0.02em"><tspan x="-176.391" y="0">CONTROLE IMOBILIÁRIO</tspan></text>
    <g id="Camada_2" data-name="Camada 2" transform="translate(1363.089 1197.588)">
      <g id="Camada_1" data-name="Camada 1" transform="translate(-682 -892)">
        <rect id="Retângulo_201" data-name="Retângulo 201" width="17.596" height="82.1" transform="translate(306.504 3.975)" fill="#f9a364"/>
        <rect id="Retângulo_202" data-name="Retângulo 202" width="17.596" height="82.1" transform="translate(376.016 3.975)" fill="#f9a364"/>
        <path id="Caminho_398" data-name="Caminho 398" d="M379.032,62.426,357.138,24.39h-44L291.18,62.426l21.959,38.036h44ZM321.961,85.161,308.825,62.426l13.137-22.767h26.273l13.153,22.767L348.234,85.161Z" transform="translate(179.313 15.02)" fill="#f9a364"/>
        <rect id="Retângulo_203" data-name="Retângulo 203" width="17.596" height="177.142" transform="translate(483.645 68.478) rotate(90)" fill="#f9a364"/>
        <path id="Caminho_399" data-name="Caminho 399" d="M0,40.573C0,17.645,18.55,0,42.69,0A45.017,45.017,0,0,1,71.338,11.731L59.51,26.919a26.192,26.192,0,0,0-16.772-7.158c-11.925,0-21.878,9.081-21.878,21.006S31.25,61.627,42.3,61.627c6.463,0,12.313-3.07,17.305-7.546L71.338,69.706A42.69,42.69,0,0,1,42.254,81.017C20.424,81.049,0,64.891,0,40.573Z" fill="#fff"/>
        <path id="Caminho_400" data-name="Caminho 400" d="M113.692,1.155V78.714H93.171V49.419H70.145v29.23H49.56V1.09H70.145V30.175H93.171V1.09Z" transform="translate(30.52 0.671)" fill="#fff"/>
        <path id="Caminho_401" data-name="Caminho 401" d="M149.439,69.939H120.5l-3.878,9.049H94L130.065.54h9.695l36.049,78.448H153.333ZM142.975,54.9,135.058,36.54,127.076,54.9Z" transform="translate(57.886 0.333)" fill="#fff"/>
        <path id="Caminho_402" data-name="Caminho 402" d="M214.645,1.13l-35.71,78.3h-9.388L134,1.13h22.3l17.871,42.011L192.1,1.13Z" transform="translate(82.519 0.696)" fill="#fff"/>
        <rect id="Retângulo_204" data-name="Retângulo 204" width="54.194" height="15.803" transform="translate(306.504 36.534)" fill="#f9a364"/>
        <rect id="Retângulo_205" data-name="Retângulo 205" width="54.194" height="15.803" transform="translate(306.504 3.975)" fill="#f9a364"/>
        <rect id="Retângulo_206" data-name="Retângulo 206" width="54.194" height="15.803" transform="translate(376.016 36.534)" fill="#f9a364"/>
        <rect id="Retângulo_207" data-name="Retângulo 207" width="54.194" height="15.803" transform="translate(376.016 3.975)" fill="#f9a364"/>
      </g>
    </g>
  </g>
</svg>
